# xmcd
#
# Track frame offsets:
#	162
#	11460
#	23160
#	35025
#	46732
#	59655
#	79597
#	89932
#	111842
#	124385
#	141037
#	158802
#	171755
#	183385
#	197170
#	216785
#	232657
#	242657
#	259960
#	272425
#
# Disc length: 3810 seconds
#
# Revision: 11
# Processed by: cddbd v1.5.2PL0 Copyright (c) Steve Scherf et al.
# Submitted via: dBpowerAMP V4.0
#
DISCID=170ee014
DTITLE=Various Artist - Blues Brother Soul Sister
DYEAR=1993
DGENRE=Blues
TTITLE0=John Lee Hooker - Boom Boom
TTITLE1=Erma Franklin - (Take A Little) Piece Of My Heart
TTITLE2=Sam and Dave - Soul Man
TTITLE3=Etta James - I'd Rather Go Blind
TTITLE4=Booker T and The MG's - Green Onions
TTITLE5=The Isley Brothers - Shout
TTITLE6=Aretha Franklin - Think
TTITLE7=The Staple Singes - Respect Yourself
TTITLE8=Bob and Earl - Harlem Shuffle
TTITLE9=Al Green - Take Me To The River
TTITLE10=Muddy Waters - Mannish Boy
TTITLE11=Fontella Bass - Rescue Me
TTITLE12=Wilson Pickett - In The Midnight Hour
TTITLE13=Eddie Floyd - Knock On Wood
TTITLE14=Little Milton - Stormy Monday
TTITLE15=Dobie Gray - Drift Away
TTITLE16=Betty Everett - It's In His Kiss
TTITLE17=Fleetwood Mac - Need Your Love So Bad
TTITLE18=Ann Peebles - I'm Gonna Tear Your Playhouse Down
TTITLE19=Ben E. King - Stand By Me
EXTD=
EXTT0=
EXTT1=
EXTT2=
EXTT3=
EXTT4=
EXTT5=
EXTT6=
EXTT7=
EXTT8=
EXTT9=
EXTT10=
EXTT11=
EXTT12=
EXTT13=
EXTT14=
EXTT15=
EXTT16=
EXTT17=
EXTT18=
EXTT19=
PLAYORDER=
